<svg xmlns="http://www.w3.org/2000/svg" viewBox="0 0 504 137"><defs><linearGradient id="a" x1="24.2%" x2="79.9%" y1="115.7%" y2="8%"><stop offset="0%" stop-color="#FF7854"/><stop offset="100%" stop-color="#FD267D"/></linearGradient></defs><path fill="url(#a)" fill-rule="evenodd" d="M494 85c-4.3 0-7.2 4-7.2 8 0 3.2 2 6.2 7.3 6.2 4.5 0 6.8-3.6 6.8-7 0-3.6-2.3-7.3-6.8-7.3m.4-7c1 0 2.3-.2 3.2-.7 0-11 6.4-57 6.4-61.2 0-.8-9.7-9.8-11-9.8h-1l-.3 69.4c0 1.8 1.2 2.5 2.7 2.5m-34.2-64c1 0 1.5 1.7 1.5 4.4 0 8.6-4.5 27.3-13 37.3 2-20.5 7.6-41.8 11.5-41.8m19 73.3c-.5 0-.6.4-.6.4-1 3-4.3 8.3-8 8.3-3.3 0-3.8-6.4-3.8-12 0-7.4.6-15.2 2-24 0-2.2-2.3-2.6-4.6-2.8 0 0-1-1-2-1-4 0-12.5 16.3-14 20 0 .4-.2.5-.5.5 0 0-.3 0-.3-.5 0-3 .4-9.4 1-16 11-10 19-32 19-46.4 0-8-2.6-13.8-8.2-13.8-6.5 0-15.5 30.2-17.4 57.5l-.4 4-4.2 1c0 .2.3.4 1 .4 1.2.3.6 1 1.6 1.4l1 .2h.4l-3 35.4c1 1 5.2 3 7 4.5l1 .3c.5 0 .7-.8.7-2 0 0-.2-3.2-.2-7.3 0-5.6 1.4-13 4-18.4 1-2.3 6.3-12.3 7-12.3.4 0 .5 1.5.5 2-.3 3-.6 8-.6 13.2 0 6.4.6 21.7 10.7 21.7 1.6 0 3.5-.4 5.6-2 3.2-2 6.3-6.7 6.3-10.8 0-.6-.3-1.7-1.2-1.7M429.5 78c-1.4 0-1.4.4-1.4.5 1 2.8 1.4 5.3 1.4 7.6 0 7.4-4 11-8 11-4.5 0-9.3-4.3-9.3-12.7 0-10.4 6.7-23.5 13-24 .5.3.7 1 .7 1.8 0 2.6-2 6.8-3 7-.2 0-.3 0-.3.3 0 .5 1 1.4 3.3 1.4 4 0 7-2.6 7-6.2l-.3-1.7c-.6-7.5-4-11-8.6-11-11 0-19.5 16.3-19.5 30.2 0 13.4 9.3 20.3 17.6 20.3 7 0 13.2-4.8 13.2-14.3 0-5.3-2.5-10-5.8-10m-72 18c-2.4 0-3.5-3.3-3.5-8 0-8.6 4.6-26.3 11.7-26.3 1.7 0 3.5 1 5.5 3.5-1 8.7-4.5 30.7-14 30.7m61.5-52s.3-1 1-2.2c.4-.5 1.8-.5 1.8-1.3 0-1-2-1-3.3-1-2 0-8.3 1.4-16 2.3 1.8-7.8 3.2-13.6 3.2-15 0-2.4-5.3-2.2-8-4h-.3c-.5 0-1 .5-1.2.7-1.2 7-2.3 12.6-3.2 19h-1c-5.4 0-10.6-.7-14.6-2.3-.2-.4-.4-.5-.7-.5-.6 0-1 1.7-1 2.7 0 6 2.6 9.8 8.7 9.8 2.3 0 4.8 0 7.4-.6-1.2 9-2 19-2 28.2 0 3.6 0 7 .5 10.4-.4.3-.7.6-1.2.7-1 2.5-4.2 4.7-6.7 4.7-2.8 0-3.6-4.4-3.6-10 0-7.8 1.6-18 1.6-21 0-1.4-3-2.3-5-2.8-.7-5.2-3.7-9-9.8-9-11 0-18 17-18 30.7 0 9.5 3.5 17.6 11.4 17.6 4.4 0 8.8-6 12-13.7 1 10 5.4 13.7 10 13.7 4 0 8-3.2 9.7-7.3 1.3 7.8 3.8 13.8 8.4 16 1.5 0 1.6-1.6 1.6-1.6-3.2-4.8-4.4-12.3-4.4-21 0-12 2.2-26 4.6-37.7 8.6-2 16.2-5 18-5.8m-29.2 70.6h-.6c-5.7 5.6-12.8 9.5-21.5 9.5-22.6 0-29-25.6-29-51.7 0-24.6 5.6-49.6 9.2-54.4.4-.7.4-1.2.4-1.8v-.6c0-1.2-.5-2-1.8-3-2-1.3-5.4-4.7-6-5.5-.5-.5-.8-.7-1-.7-.3 0-.8.2-1 .4-10.3 17.7-26.3 89-33.6 89-3.7 0-4.6-14.4-4.6-32.5 0-16.3.8-35.6.8-50 0-2.6-3.2-4-6.4-4h-3c-52.5 0-74.7 16.8-74.7 31 0 10.2 11.7 19 32.2 19 18.2 0 25.7-11 25.3-11.4-5.7 3.2-11.8 4.4-17.7 4.4-19.3 0-30.8-7.5-30.8-16 0-10.7 19.8-23.4 64.7-25-1.6.4-2.4 3.6-2.4 3.6-3 15.2-23.6 98.6-54 98.6-11 0-19.2-11.5-19.2-25.4 0-7.3 2.2-15.2 7.6-22.6.3-.3.3-.4.3-.5 0-.6-.5-.8-1-.8-.3 0-.8 0-1 .3-8.2 10-11.7 20-11.7 28.6 0 15.5 11 26.8 24.2 26.8 38.4 0 51.6-86.8 55-94.7l-.3 25.2c0 23.3 1.5 39 5 47.8 2.3 5 4.8 7.5 7.5 7.5 2.6 0 5.5-2.6 8-7.4 8.4-16 20.7-64.4 23.4-70.4 0-.2 0-.4.2-.4s.4.5.4.5c-1.8 9.8-3.7 26.4-3.7 43.7 0 31.5 6.5 65.6 34.3 65.6 7.3 0 17.3-3.8 19.5-11.5 0 0 5.7-7.7 6.8-10.2v-.4c0-.3 0-.4-.2-.4M158.4 96c-2.3 0-3.5-3.3-3.5-8 0-8.6 4.6-26.3 11.7-26.3 1.8 0 3.6 1 5.5 3.5-1 8.7-4.4 30.7-13.8 30.7m33.3-7c-.3 0-.6 1.6-1.8 2-1.3 2.5-4.4 4.7-7 4.7-2.7 0-3.5-4.4-3.5-10 0-7.8 1.6-18 1.6-21 0-1.4-2.8-2.3-5-2.8-.7-5.2-3.6-9-9.7-9-11 0-18 17-18 30.7 0 9.5 3.4 17.6 11.3 17.6 4.5 0 9-6 12-13.7 1 10 5.5 13.7 10 13.7 5.2 0 10.6-5.3 10.6-11.2 0-.2 0-1-.5-1M105 44l1.8 1c5-7.2 7.3-15.8 7.3-21.7 0-4.4-1-7.3-4-7.3-1.6 0-4 1.2-7 4 3.2 3.2 4 8 4 12.4 0 5.2-1 10-2 11.6m14.5 3.8c0-.5-.5-.6-1-.6-1.6 0-6.4 2-7 4.5C109.6 62.3 94 96 85 96c-2 0-3-3.7-3-9 0-9.2 2.4-24 4.5-36 3.4-.8 6.8-2.2 11.3-4.3 2.3-2 6.2-2 6.2-3.3 0-.5-.4-.6-1-.6l-2.6.2c-1.8 0-6.7 1-12.8 1.6C89 36.8 90 31.2 90 30.3c0-2.4-5.3-2.2-7.8-3.8h-.5c-.6 0-1 .3-1.3.5 0 1-1.7 8.3-3.3 18-4.8-.2-9.8-1-14.2-2.6-.2-.4-.5-.5-.7-.5-.6 0-1 1.6-1 2.6 0 6 3 7.8 9 7.8h6C75 60.8 74 70.3 74 78.5c0 12.6 2.3 22.6 9.5 22.6 8.6 0 24-23.5 28.4-38 0 2.5 3.8 22 3.8 29.6 0 4.2-1.5 5.8-3.3 5.8-2.8 0-6.2-3.6-6.4-7.6 0-.2-.3-.2-.4-.2-.7 0-1.7 2.7-1.7 6 0 6.7 6 10.5 11.6 10.5 5 0 9.6-3 9.6-9.8 0-9-7.2-26-7.2-34 0-8.5 1.7-15.6 1.7-15.7M69.8 95L68 93.5c-.4-.3-3-.4-3.4-.6l-1.8-1.2c-2-.7-12.7-1-15.7-1.6-.6 0-.7-1-.7-1 0-22.3.7-44.7.7-67.7 0-.5 0-1 .3-1.4 11.6-2 23-4.6 35.8-4.6H85s.3 0 .3-.3c0-.7-6.5-6.8-7.2-7.6 0 0 0-.7-4.5-.7-18.4 0-39 8-57.8 8h-3s-1-.8-1.5-.8h-3s-.6 0-.6.6c0 3.2 8.7 7 20 7 4.4 0 8.6-.3 13-.8C37.3 33 33 62.8 33 80.5c0 7.4 2.2 10 2.2 10.6 0 1-1.8 1-1.8 1-11 2-23.6 6-32.2 10-1.4.8-1.4 1-1.4 1.7 0 0 1.7 3.6 6 3.6 16.7-4 40-7 57-7 4.2 0 11.4.7 12.7.7.5 0 1.8-.5 1.8-1 0-.4-.3-.6-.3-.6s-6-2.7-7.4-4.3"/></svg>